<svg version="1.1" xmlns="http://www.w3.org/2000/svg" style="display: block;" viewBox="0 0 2000 2000" width="500" height="500" preserveAspectRatio="none">
<path transform="translate(0,0)" fill="rgb(0,213,86)" d="M 1645.68 366.38 C 1648.31 366.449 1650.72 366.551 1653.36 366.399 C 1660.1 400.3 1665.69 439.244 1658.53 473.547 C 1647.12 528.17 1601.96 561.87 1571.86 605.606 C 1552.28 634.046 1539.71 666.032 1531.88 699.51 C 1522.24 740.719 1519.52 786.404 1521.95 828.681 C 1523.82 861.3 1527.78 893.134 1527.83 925.953 C 1527.97 1031.03 1507.3 1138.53 1476.96 1238.96 C 1447.39 1336.82 1364.66 1563.56 1272.09 1612.35 C 1257.49 1620.04 1241.67 1623.07 1225.6 1618.03 C 1203.69 1611.16 1184.13 1595.6 1173.54 1575.17 C 1164.85 1558.4 1161.92 1539.34 1162.43 1520.6 C 1164.61 1440.74 1223.14 1325.1 1258.35 1252.56 L 1329.17 1107.17 C 1355.56 1051.84 1381.34 991.984 1399.65 933.416 C 1416.26 880.273 1425.72 853.82 1398.12 801.743 C 1356.27 724.128 1253.83 725.178 1177.57 721.103 C 1086.29 716.225 971.364 709.633 922.85 618.546 C 945.161 630.983 960.26 641.741 985.609 650.818 C 1076.17 683.953 1171.72 659.174 1263.62 647.855 C 1336.93 638.825 1405.64 633.125 1447.99 704.526 C 1449.89 682.425 1456.41 658.297 1464.36 637.683 C 1500.58 543.696 1572.08 533.838 1616.33 460.101 C 1633.87 430.877 1641.09 399.713 1645.68 366.38 z"/>
<path transform="translate(0,0)" fill="rgb(41,169,252)" d="M 294.267 408.561 C 297.078 409.863 319.757 450.091 324.463 457.342 C 357.756 510.059 412.223 545.14 471.168 563.607 C 545.904 587.021 580.231 620.256 590.259 700.593 C 609.99 684.197 655.909 666.229 680.504 659.352 C 761.605 636.675 840.46 668.79 908.396 711.908 C 930.524 725.952 955.764 740.074 979.915 750.329 C 996.032 756.949 1015.47 759.832 1032.74 762.649 C 989.262 771.819 940.4 771.324 896.987 762.143 C 876.044 757.714 855.905 751.201 835.659 744.331 C 795.81 730.809 752.849 712.868 710.576 726.938 C 685.136 735.405 644.328 767.168 633.131 791.115 C 600.869 860.115 697.931 1104.55 725.031 1182.81 C 757.109 1276.31 792.594 1374.52 794.784 1474.19 C 795.58 1510.44 790.744 1547.58 764.349 1574.74 C 749.376 1590.14 729.739 1601.15 707.908 1601.24 C 685.946 1601.32 666.441 1590.08 651.373 1574.76 C 558.477 1480.29 523.64 1220.35 514.658 1089.54 C 510.28 1025.78 510.097 961.548 511.055 897.656 C 511.454 871.034 512.222 843.736 514.682 817.229 C 516.923 793.092 520.978 768.863 521.124 744.583 C 521.579 668.826 477.36 650.211 417.954 619.528 C 392.203 606.227 367.769 591.575 347.309 570.714 C 307.805 530.432 293.933 463.463 294.267 408.561 z"/>
<path transform="translate(0,0)" fill="rgb(0,213,86)" d="M 1020.54 1141.37 C 1061.42 1136.87 1096.19 1153.25 1123.01 1183.74 C 1130.7 1192.49 1137.32 1202.48 1145.28 1210.86 L 1146.13 1211.74 C 1182.51 1220.56 1207.03 1219.11 1230.56 1253.11 C 1192.19 1259.19 1186.5 1258.47 1148.07 1254.59 C 1146.42 1265.23 1145.44 1288.23 1140.7 1296.21 C 1133.03 1309.09 1092.68 1281.59 1086.39 1276.81 C 1073.94 1304.26 1057.91 1312.54 1029.08 1317.07 C 1026.86 1285.11 1044 1264.13 1068.82 1245.76 C 1047.88 1243.08 1033.56 1240.9 1012.45 1245.47 C 973.625 1253.88 945.382 1282.38 924.327 1314.56 C 910.052 1332.72 890.804 1375.65 881.982 1396.81 C 860.835 1447.53 843.798 1499.22 822.926 1550.24 C 818.289 1537.28 816.858 1529.2 815.108 1515.51 C 801.608 1412.05 829.741 1307.47 893.322 1224.75 C 925.114 1183.77 967.55 1148.06 1020.54 1141.37 z"/>
<path transform="translate(0,0)" fill="rgb(0,213,86)" d="M 1385.65 440.458 C 1436.95 434.717 1483.19 471.65 1488.94 522.952 C 1494.69 574.254 1457.76 620.502 1406.46 626.254 C 1355.15 632.006 1308.89 595.072 1303.14 543.762 C 1297.4 492.452 1334.34 446.199 1385.65 440.458 z"/>
<path transform="translate(0,0)" fill="rgb(41,169,252)" d="M 637.849 432.657 C 689.095 427.011 735.167 464.099 740.597 515.368 C 746.026 566.638 708.744 612.552 657.452 617.765 C 606.466 622.947 560.884 585.935 555.487 534.971 C 550.09 484.007 586.909 438.269 637.849 432.657 z"/>
<path transform="translate(0,0)" fill="rgb(2,129,53)" d="M 1157.18 1261.93 C 1164.24 1262.15 1174.92 1262.1 1181.43 1264.11 C 1182.57 1265.24 1183.22 1266.28 1183.46 1267.93 C 1189.3 1307.32 1174.52 1374.19 1119.63 1349.79 C 1111.82 1346.32 1105.54 1341.82 1098.42 1336.79 C 1077.35 1318.08 1059.74 1311.04 1087.47 1289.25 C 1099.89 1295.39 1110.67 1304.38 1124.44 1308.1 C 1154.6 1316.24 1152.06 1281.86 1156.94 1262.82 L 1157.18 1261.93 z"/>
<path transform="translate(0,0)" fill="rgb(14,165,71)" d="M 1156.03 1358.56 C 1163.07 1356.6 1170.63 1358.58 1175.81 1363.74 C 1180.99 1368.91 1183 1376.45 1181.06 1383.5 C 1179.13 1390.56 1173.56 1396.03 1166.47 1397.83 C 1155.68 1400.57 1144.7 1394.12 1141.84 1383.36 C 1138.97 1372.6 1145.3 1361.54 1156.03 1358.56 z"/>
<path transform="translate(0,0)" fill="rgb(14,165,71)" d="M 1645.68 366.38 C 1646.01 361.037 1645.85 356.772 1647.93 351.878 L 1649.37 351.273 C 1652.1 354.847 1652.62 361.7 1653.36 366.399 C 1650.72 366.551 1648.31 366.449 1645.68 366.38 z"/>
</svg>